<svg xmlns="http://www.w3.org/2000/svg" viewBox="0 0 24 24" fill="currentColor">
  <path d="M12 2C6.48 2 2 6.48 2 12c0 4.42 2.87 8.17 6.84 9.5.5.09.66-.22.66-.48 0-.24-.01-.87-.01-1.7-2.78.6-3.37-1.34-3.37-1.34-.45-1.16-1.11-1.47-1.11-1.47-.91-.62.07-.61.07-.61 1 .07 1.53 1.03 1.53 1.03.89 1.53 2.34 1.09 2.91.83.09-.65.35-1.09.63-1.34-2.22-.25-4.55-1.11-4.55-4.95 0-1.09.39-1.99 1.03-2.69-.1-.25-.45-1.28.1-2.67 0 0 .84-.27 2.75 1.02A9.6 9.6 0 0 1 12 6.8c.85 0 1.71.11 2.51.33 1.91-1.29 2.75-1.02 2.75-1.02.55 1.39.2 2.42.1 2.67.64.7 1.03 1.6 1.03 2.69 0 3.85-2.33 4.69-4.56 4.94.36.31.68.92.68 1.85 0 1.34-.01 2.42-.01 2.75 0 .27.17.58.67.48A10.02 10.02 0 0 0 22 12c0-5.52-4.48-10-10-10Z"/>
</svg>
